<svg width="270" height="109" viewBox="0 0 270 109" fill="none" xmlns="http://www.w3.org/2000/svg">
<path d="M269.047 105.029H2.14901C1.60404 105.029 1.19531 105.44 1.19531 105.987V108.041C1.19531 108.589 1.60404 109 2.14901 109H268.911C269.456 109 269.864 108.589 269.864 108.041V105.987C270.001 105.44 269.456 105.029 269.047 105.029Z" fill="#F7550F"/>
<path d="M48.4521 32.0425V20.5401L32.6481 20.5401V32.0425H48.4521Z" fill="#F7550F"/>
<path d="M64.1992 32.1007V20.5983L48.3951 20.5983V32.1007H64.1992Z" fill="#F7550F"/>
<path d="M48.4297 89.2569V77.7545H32.6256V89.2569H48.4297Z" fill="#F7550F"/>
<path d="M79.9219 89.2365V77.7341H64.1178V89.2365H79.9219Z" fill="#F7550F"/>
<path d="M64.1758 89.3151V77.8127H48.3717V89.3151H64.1758Z" fill="#F7550F"/>
<path d="M48.4111 66.3712V54.8688H32.6071V66.3712H48.4111Z" fill="#F7550F"/>
<path d="M64.1572 66.4294V54.927H48.3532V66.4294H64.1572Z" fill="#F7550F"/>
<path d="M16.9189 66.3916L16.9189 54.8892H1.11489L1.11489 66.3916H16.9189Z" fill="#F7550F"/>
<path d="M32.665 66.4499V54.9475H16.861V66.4499H32.665Z" fill="#F7550F"/>
<path d="M16.9785 54.9488L16.9785 43.4464H1.17445L1.17445 54.9488H16.9785Z" fill="#F7550F"/>
<path d="M32.6475 43.5642V32.0618H16.8434V43.5642H32.6475Z" fill="#F7550F"/>
<path d="M64.2344 77.8723V66.3699H48.4303V77.8723H64.2344Z" fill="#F7550F"/>
<path d="M79.9033 66.3506V54.8483H64.0993V66.3506H79.9033Z" fill="#F7550F"/>
<path d="M64.2168 54.9865V43.4842H48.4127V54.9865H64.2168Z" fill="#F7550F"/>
<path d="M64.1396 43.5436V32.0413H48.3356V43.5436H64.1396Z" fill="#F7550F"/>
<path d="M237.996 32.0122V20.5099L222.192 20.5099V32.0122H237.996Z" fill="#F7550F"/>
<path d="M253.742 32.0706V20.5682L237.938 20.5682V32.0706H253.742Z" fill="#F7550F"/>
<path d="M237.973 89.2268V77.7244H222.169V89.2268H237.973Z" fill="#F7550F"/>
<path d="M269.465 89.3431V77.8408H253.661V89.3431H269.465Z" fill="#F7550F"/>
<path d="M253.719 89.285V77.7826H237.915V89.285H253.719Z" fill="#F7550F"/>
<path d="M237.955 66.341V54.8387H222.151V66.341H237.955Z" fill="#F7550F"/>
<path d="M253.701 66.3992V54.8969H237.897V66.3992H253.701Z" fill="#F7550F"/>
<path d="M206.463 66.3614V54.8591H190.659V66.3614H206.463Z" fill="#F7550F"/>
<path d="M222.209 66.4198V54.9174H206.405V66.4198H222.209Z" fill="#F7550F"/>
<path d="M206.521 54.9185V43.4161H190.717V54.9185H206.521Z" fill="#F7550F"/>
<path d="M222.191 43.534V32.0317H206.387V43.534H222.191Z" fill="#F7550F"/>
<path d="M253.777 77.8422V66.3398H237.973V77.8422H253.777Z" fill="#F7550F"/>
<path d="M269.447 66.4574V54.9551H253.643V66.4574H269.447Z" fill="#F7550F"/>
<path d="M253.76 54.9563V43.4539H237.956V54.9563H253.76Z" fill="#F7550F"/>
<path d="M253.684 43.5135V32.0111H237.88V43.5135H253.684Z" fill="#F7550F"/>
<path d="M127.478 32.0376V20.5352L111.673 20.5352V32.0376H127.478Z" fill="#F7550F"/>
<path d="M143.223 32.0959V20.5936L127.419 20.5936V32.0959H143.223Z" fill="#F7550F"/>
<path d="M158.969 32.017V20.5147L143.165 20.5147V32.017H158.969Z" fill="#F7550F"/>
<path d="M127.454 89.2521V77.7497H111.65V89.2521H127.454Z" fill="#F7550F"/>
<path d="M143.199 89.3103V77.8079H127.395V89.3103H143.199Z" fill="#F7550F"/>
<path d="M158.945 89.2316V77.7292H143.141V89.2316H158.945Z" fill="#F7550F"/>
<path d="M111.767 77.8879V66.3855H95.9625V77.8879H111.767Z" fill="#F7550F"/>
<path d="M127.514 77.8092V66.3068H111.71V77.8092H127.514Z" fill="#F7550F"/>
<path d="M143.182 66.4246V54.9222H127.378V66.4246H143.182Z" fill="#F7550F"/>
<path d="M143.242 54.9816V43.4793H127.438V54.9816H143.242Z" fill="#F7550F"/>
<path d="M158.91 43.4601V31.9577L143.106 31.9577V43.4601H158.91Z" fill="#F7550F"/>
<path d="M111.689 66.4451V54.9427H95.8854V66.4451H111.689Z" fill="#F7550F"/>
<path d="M111.749 55.0022V43.4998H95.9449V55.0022H111.749Z" fill="#F7550F"/>
<path d="M111.672 43.5592V32.0569H95.8678V43.5592H111.672Z" fill="#F7550F"/>
<path d="M174.752 77.8468V66.3445H158.948V77.8468H174.752Z" fill="#F7550F"/>
<path d="M174.674 66.404V54.9017H158.87V66.404H174.674Z" fill="#F7550F"/>
<path d="M174.734 54.9612V43.4589H158.93V54.9612H174.734Z" fill="#F7550F"/>
<path d="M174.656 43.5183V32.0159H158.852V43.5183H174.656Z" fill="#F7550F"/>
<path d="M266.303 0H4.89107C2.77865 0 1.19434 0.371732 1.19434 0.867374V2.72603C1.19434 3.22167 2.77865 3.59341 4.89107 3.59341H266.303C268.415 3.59341 270 3.22167 270 2.72603V0.867374C270 0.371732 268.415 0 266.303 0Z" fill="#F7550F"/>
</svg>
