<svg width="166" height="59" viewBox="0 0 166 59" fill="none" xmlns="http://www.w3.org/2000/svg">
<g opacity="0.15" clip-path="url(#clip0_192_163)">
<path d="M68.597 31.6992L67.0054 31.9045C66.9858 32.7258 66.9661 33.5471 66.9465 34.3684C66.9465 35.1701 66.9465 35.9914 66.9465 36.8322V38.0934C65.9051 38.6606 64.8735 39.081 63.8517 39.3548C62.83 39.6481 61.7296 39.7947 60.5507 39.7947C58.9984 39.7947 57.5935 39.5405 56.3359 39.0321C55.0784 38.5237 53.9977 37.8295 53.0938 36.9496C52.2096 36.0501 51.5219 34.9941 51.0307 33.7817C50.559 32.5498 50.3232 31.2103 50.3232 29.7633C50.3232 28.3162 50.5689 26.9768 51.0601 25.7448C51.5514 24.5129 52.2488 23.457 53.1527 22.577C54.0763 21.6775 55.1864 20.9736 56.4833 20.4652C57.7801 19.9567 59.2342 19.7025 60.8454 19.7025C61.7886 19.7025 62.7317 19.8101 63.6748 20.0251C64.618 20.2207 65.6103 20.5727 66.6517 21.0811L66.7696 25.2462H64.4117L63.8812 21.9904C62.9577 21.5406 62.0146 21.3158 61.0517 21.3158C59.1458 21.3158 57.6328 22.0491 56.5128 23.5156C55.3927 24.9822 54.8328 27.0648 54.8328 29.7633C54.8328 31.093 54.9899 32.2859 55.3043 33.3418C55.6383 34.3782 56.0804 35.2581 56.6307 35.9816C57.2005 36.7051 57.8686 37.2527 58.6348 37.6242C59.4012 37.9957 60.2363 38.1815 61.1402 38.1815C61.7099 38.1815 62.2306 38.1131 62.7023 37.9762V36.8322C62.7023 36.0109 62.6924 35.1995 62.6728 34.3977C62.6728 33.5959 62.663 32.7844 62.6433 31.9632L60.4623 31.6992V30.2326H68.597V31.6992Z" fill="#435072"/>
<path d="M86.0772 38.0642V39.3548L80.654 39.6481L80.4477 37.2136C79.7009 38.0545 78.9248 38.6998 78.1192 39.1495C77.3136 39.5797 76.4392 39.7948 75.496 39.7948C74.8672 39.7948 74.2975 39.697 73.7866 39.5014C73.2953 39.3255 72.8631 39.0322 72.4897 38.6215C72.1361 38.1914 71.861 37.6438 71.6644 36.9789C71.468 36.3141 71.3796 35.4928 71.3992 34.5151L71.5171 27.0355L69.896 26.7422V25.5689L75.2013 25.0409L75.555 25.2756L75.4077 29.4407V33.9578C75.4077 35.2483 75.5747 36.1479 75.9087 36.6563C76.2428 37.1451 76.675 37.3896 77.2056 37.3896C77.7164 37.3896 78.2371 37.2234 78.7676 36.8909C79.3179 36.5585 79.8483 36.1479 80.3592 35.659L80.4771 27.0355L78.8561 26.7422V25.6275L84.1024 25.0409L84.4561 25.2756L84.3676 29.4407V37.7123L86.0772 38.0642Z" fill="#435072"/>
<path d="M96.085 31.7872C95.7119 31.8849 95.358 31.9925 95.0242 32.1099C94.7095 32.2076 94.435 32.3054 94.1988 32.4031C93.3341 32.7355 92.7349 33.156 92.401 33.6644C92.0672 34.1729 91.9003 34.7399 91.9003 35.3657C91.9003 35.7567 91.9487 36.0696 92.0472 36.3043C92.1648 36.5389 92.3025 36.7345 92.4603 36.8908C92.8726 37.3016 93.4226 37.5069 94.1103 37.5069C94.425 37.5069 94.7296 37.458 95.0242 37.3602C95.3188 37.2428 95.6727 37.0375 96.085 36.7443V31.7872ZM102.628 37.5069C102.235 38.3086 101.784 38.8659 101.273 39.1788C100.781 39.4917 100.162 39.6481 99.4159 39.6481C98.6105 39.6481 97.942 39.4917 97.4111 39.1788C96.8812 38.8659 96.5073 38.4553 96.292 37.9469C95.6234 38.553 94.975 39.0126 94.3465 39.3255C93.7373 39.6382 92.9711 39.7947 92.0472 39.7947C90.8684 39.7947 89.9056 39.5014 89.1589 38.9148C88.4319 38.3086 88.0684 37.4287 88.0684 36.2749C88.0684 35.8251 88.1371 35.3852 88.2747 34.955C88.4319 34.5052 88.707 34.075 89.0999 33.6644C89.5126 33.2342 90.0726 32.8236 90.78 32.4324C91.4871 32.0414 92.4011 31.6601 93.5211 31.2886C93.8549 31.1712 94.248 31.0538 94.7004 30.9366C95.1519 30.7997 95.6134 30.6628 96.085 30.5259V29.6459C96.085 28.414 95.8989 27.5341 95.5249 27.0061C95.1519 26.4782 94.4934 26.2141 93.5503 26.2141C93.3934 26.2141 93.2365 26.2239 93.0787 26.2434C92.941 26.2434 92.7942 26.2532 92.6364 26.2728L92.401 27.974C92.3025 28.7367 92.0672 29.3037 91.6933 29.6753C91.3202 30.0468 90.8782 30.2326 90.3674 30.2326C89.9154 30.2326 89.5224 30.0957 89.1884 29.8219C88.874 29.5482 88.6677 29.1864 88.5695 28.7367C88.707 27.5829 89.3259 26.6346 90.4263 25.8915C91.5264 25.1289 93.0204 24.7476 94.9066 24.7476C95.8296 24.7476 96.6158 24.8551 97.2643 25.0702C97.9319 25.2658 98.4728 25.5982 98.8851 26.0675C99.2983 26.5172 99.6029 27.1234 99.799 27.8861C99.9951 28.6291 100.094 29.5482 100.094 30.6432V36.6855C100.094 36.9984 100.153 37.2527 100.271 37.4482C100.388 37.6438 100.575 37.7415 100.831 37.7415C101.027 37.7415 101.184 37.6828 101.302 37.5655C101.42 37.4482 101.557 37.3016 101.714 37.1256L101.862 36.9496L102.628 37.5069Z" fill="#435072"/>
<path d="M109.442 27.9154C109.992 26.9181 110.621 26.1457 111.329 25.5982C112.035 25.0311 112.733 24.7476 113.421 24.7476C113.834 24.7476 114.256 24.8746 114.689 25.1289C115.14 25.383 115.445 25.8622 115.602 26.5661C115.602 27.2114 115.416 27.7394 115.042 28.15C114.669 28.5412 114.168 28.7367 113.539 28.7367C112.772 28.7367 112.016 28.3358 111.269 27.5341L111.211 27.4754C110.857 27.8078 110.522 28.1892 110.209 28.6193C109.914 29.03 109.659 29.509 109.442 30.0566V33.1951C109.442 33.8209 109.442 34.5346 109.442 35.3363C109.442 36.138 109.452 36.9007 109.472 37.6242L111.712 38.0641V39.3548H103.606V38.0641L105.405 37.7122C105.424 36.9887 105.434 36.2163 105.434 35.395C105.434 34.5541 105.434 33.8209 105.434 33.1951V31.4939C105.434 31.0833 105.434 30.7312 105.434 30.4379C105.434 30.1446 105.424 29.8708 105.405 29.6166C105.405 29.3428 105.395 29.0887 105.374 28.854C105.374 28.5998 105.364 28.326 105.345 28.0327L103.371 27.7687V26.6541L108.705 24.7476L109.147 25.0408L109.442 27.9154Z" fill="#435072"/>
<path d="M126.434 27.974C126.021 27.6808 125.608 27.446 125.196 27.2701C124.803 27.0941 124.4 27.0061 123.987 27.0061C123.555 27.0061 123.143 27.1136 122.75 27.3288C122.357 27.5439 122.003 27.8665 121.688 28.2967C121.394 28.7269 121.148 29.2744 120.951 29.9393C120.775 30.5846 120.687 31.357 120.687 32.2564C120.687 34.036 120.981 35.3559 121.57 36.2163C122.18 37.0767 122.927 37.5069 123.811 37.5069C124.243 37.5069 124.675 37.4189 125.108 37.2429C125.559 37.0473 126.001 36.8029 126.434 36.5096V27.974ZM132.152 38.0641V39.3548L126.788 39.6481L126.551 37.9175C125.962 38.5237 125.324 38.993 124.636 39.3255C123.948 39.6383 123.152 39.7947 122.248 39.7947C121.424 39.7947 120.647 39.6383 119.92 39.3255C119.213 39.0126 118.593 38.5432 118.063 37.9175C117.553 37.2918 117.15 36.5193 116.855 35.6003C116.56 34.6616 116.413 33.5764 116.413 32.3445C116.413 31.1712 116.569 30.1153 116.884 29.1766C117.218 28.238 117.67 27.446 118.24 26.8008C118.81 26.136 119.468 25.6275 120.215 25.2756C120.981 24.9236 121.807 24.7476 122.691 24.7476C123.516 24.7476 124.243 24.8844 124.871 25.1582C125.501 25.432 126.07 25.8231 126.581 26.3315V21.0224L124.223 20.7291V19.5558L130.148 18.236L130.56 18.4706L130.442 22.6356V37.7122L132.152 38.0641Z" fill="#435072"/>
<path d="M141.879 31.7872C141.506 31.8849 141.152 31.9925 140.818 32.1099C140.504 32.2076 140.228 32.3054 139.993 32.4031C139.128 32.7355 138.529 33.156 138.195 33.6644C137.86 34.1729 137.693 34.7399 137.693 35.3657C137.693 35.7567 137.743 36.0696 137.841 36.3043C137.959 36.5389 138.097 36.7345 138.254 36.8908C138.667 37.3016 139.217 37.5069 139.904 37.5069C140.218 37.5069 140.523 37.458 140.818 37.3602C141.113 37.2428 141.466 37.0375 141.879 36.7443V31.7872ZM148.422 37.5069C148.029 38.3086 147.577 38.8659 147.066 39.1788C146.575 39.4917 145.956 39.6481 145.209 39.6481C144.404 39.6481 143.736 39.4917 143.205 39.1788C142.674 38.8659 142.301 38.4553 142.085 37.9469C141.418 38.553 140.769 39.0126 140.14 39.3255C139.53 39.6382 138.764 39.7947 137.841 39.7947C136.662 39.7947 135.7 39.5014 134.953 38.9148C134.226 38.3086 133.862 37.4287 133.862 36.2749C133.862 35.8251 133.931 35.3852 134.068 34.955C134.226 34.5052 134.5 34.075 134.893 33.6644C135.307 33.2342 135.867 32.8236 136.573 32.4324C137.281 32.0414 138.195 31.6601 139.314 31.2886C139.649 31.1712 140.042 31.0538 140.494 30.9366C140.946 30.7997 141.408 30.6628 141.879 30.5259V29.6459C141.879 28.414 141.692 27.5341 141.319 27.0061C140.946 26.4782 140.287 26.2141 139.344 26.2141C139.187 26.2141 139.03 26.2239 138.873 26.2434C138.735 26.2434 138.587 26.2532 138.43 26.2728L138.195 27.974C138.097 28.7367 137.86 29.3037 137.487 29.6753C137.114 30.0468 136.672 30.2326 136.161 30.2326C135.709 30.2326 135.316 30.0957 134.982 29.8219C134.668 29.5482 134.461 29.1864 134.363 28.7367C134.5 27.5829 135.12 26.6346 136.22 25.8915C137.32 25.1289 138.814 24.7476 140.7 24.7476C141.624 24.7476 142.41 24.8551 143.057 25.0702C143.726 25.2658 144.266 25.5982 144.679 26.0675C145.091 26.5172 145.396 27.1234 145.593 27.8861C145.789 28.6291 145.888 29.5482 145.888 30.6432V36.6855C145.888 36.9984 145.946 37.2527 146.065 37.4482C146.182 37.6438 146.368 37.7415 146.625 37.7415C146.821 37.7415 146.978 37.6828 147.096 37.5655C147.214 37.4482 147.352 37.3016 147.508 37.1256L147.656 36.9496L148.422 37.5069Z" fill="#435072"/>
<path d="M166.023 38.0641V39.3548H158.478V38.0641L160.276 37.7122C160.296 36.9887 160.305 36.2163 160.305 35.395C160.305 34.5737 160.305 33.8404 160.305 33.1951V30.3792C160.305 29.2646 160.187 28.4531 159.952 27.9447C159.716 27.4167 159.254 27.1528 158.566 27.1528C157.996 27.1528 157.436 27.3092 156.886 27.622C156.355 27.9154 155.805 28.3358 155.235 28.8834V33.1951C155.235 33.8209 155.235 34.5541 155.235 35.395C155.235 36.2163 155.245 36.9887 155.265 37.7122L156.945 38.0641V39.3548H149.4V38.0641L151.198 37.7122C151.218 36.9691 151.227 36.1869 151.227 35.3657C151.227 34.5444 151.227 33.8209 151.227 33.1951V31.5232C151.227 31.1126 151.227 30.7606 151.227 30.4672C151.227 30.1544 151.218 29.8708 151.198 29.6166C151.198 29.3428 151.187 29.0887 151.168 28.854C151.168 28.5998 151.158 28.326 151.138 28.0327L149.164 27.7687V26.6541L154.498 24.7476L154.941 25.0408L155.147 27.3581C155.56 26.8888 155.943 26.4977 156.297 26.1848C156.67 25.8524 157.043 25.5786 157.416 25.3635C157.79 25.1484 158.173 24.992 158.566 24.8942C158.979 24.7965 159.44 24.7476 159.952 24.7476C161.366 24.7476 162.446 25.168 163.193 26.0088C163.94 26.8301 164.313 28.1305 164.313 29.91V33.1951C164.313 33.8404 164.313 34.5835 164.313 35.4243C164.313 36.2456 164.323 37.0082 164.343 37.7122L166.023 38.0641Z" fill="#435072"/>
<path d="M3.99322 9.0769C1.78783 9.0769 0 10.8561 0 13.0509V44.8427C0 46.6909 1.2677 48.2443 2.98494 48.6889C3.6267 46.9061 5.22533 45.4124 7.78087 44.2078C6.50632 43.6716 5.58126 42.9704 5.00566 42.1043C4.47117 41.2382 4.20393 40.2895 4.20393 39.2585C4.20393 37.8149 4.61507 36.4539 5.43736 35.1753C6.25964 33.8555 7.4314 32.5358 8.95263 31.2159C7.26694 30.3498 6.01296 29.195 5.19067 27.7514C4.4095 26.3079 4.01891 24.6994 4.01891 22.9258C4.01891 21.4823 4.2656 20.1626 4.75897 18.9665C5.29346 17.7291 6.09518 16.6568 7.16416 15.7494C8.23313 14.842 9.56935 14.1409 11.1728 13.646C12.8174 13.1511 14.7292 12.9036 16.9082 12.9036C19.1284 12.9036 21.0402 13.1511 22.6437 13.646C24.2883 14.1409 25.645 14.842 26.714 15.7494L33.6212 12.7798L34.6079 13.3985V18.1622H28.7491C29.4892 19.5233 29.8592 21.1112 29.8592 22.9258C29.8592 24.3281 29.592 25.6273 29.0575 26.8235C28.523 28.0195 27.7213 29.0712 26.6523 29.9786C25.5833 30.8447 24.2266 31.5458 22.582 32.082C20.9786 32.577 19.0873 32.8244 16.9082 32.8244C14.7703 32.8244 12.8996 32.577 11.2961 32.082C10.8028 32.9481 10.556 33.8968 10.556 34.9279C10.556 35.629 10.8233 36.2065 11.3578 36.6601C11.8923 37.0726 12.8174 37.2787 14.133 37.2787H21.3486C23.6921 37.2787 25.6655 37.5056 27.2691 37.9593C28.8725 38.3718 30.1676 38.9904 31.1543 39.8153C32.1822 40.5989 32.9017 41.5475 33.3128 42.6611C33.765 43.7334 33.9911 44.9502 33.9911 46.3112C33.9911 47.1778 33.8718 48.013 33.6329 48.8167H35.939C38.1443 48.8167 39.9322 47.0374 39.9322 44.8427V13.0509C39.9322 10.8561 38.1443 9.0769 35.939 9.0769H3.99322Z" fill="#435072"/>
<path d="M26.1726 48.8166C26.0595 48.1376 25.7465 47.5086 25.2337 46.9298C24.5759 46.2287 23.4041 45.8781 21.7184 45.8781H15.2429C12.9817 45.8781 11.111 45.6924 9.63084 45.3213C9.30194 45.8987 9.05523 46.4555 8.89078 46.9917C8.73322 47.5054 8.65113 48.1136 8.64453 48.8166H26.1726Z" fill="#435072"/>
<path d="M13.8248 17.7291C14.5237 16.4919 15.5721 15.8732 16.9701 15.8732C18.3268 15.8732 19.3546 16.4919 20.0536 17.7291C20.7936 18.9252 21.1637 20.6162 21.1637 22.8021C21.1637 25.0293 20.7936 26.7822 20.0536 28.0608C19.3546 29.2981 18.2857 29.9167 16.8467 29.9167C15.4076 29.9167 14.3593 29.2981 13.7014 28.0608C13.0847 26.8235 12.7764 25.0912 12.7764 22.864C12.7764 20.6368 13.1258 18.9252 13.8248 17.7291Z" fill="#435072"/>
</g>
<defs>
<clipPath id="clip0_192_163">
<rect width="166" height="59" fill="white"/>
</clipPath>
</defs>
</svg>
